<?xml version="1.0" encoding="UTF-8" standalone="no"?>
<svg
   xmlns:dc="http://purl.org/dc/elements/1.1/"
   xmlns:cc="http://creativecommons.org/ns#"
   xmlns:rdf="http://www.w3.org/1999/02/22-rdf-syntax-ns#"
   xmlns:svg="http://www.w3.org/2000/svg"
   xmlns="http://www.w3.org/2000/svg"
   xmlns:sodipodi="http://sodipodi.sourceforge.net/DTD/sodipodi-0.dtd"
   xmlns:inkscape="http://www.inkscape.org/namespaces/inkscape"
   width="50"
   height="50"
   id="svg2"
   version="1.1"
   inkscape:version="0.48.3.1 r9886"
   sodipodi:docname="email.svg">
  <metadata
     id="metadata22">
    <rdf:RDF>
      <cc:Work
         rdf:about="">
        <dc:format>image/svg+xml</dc:format>
        <dc:type
           rdf:resource="http://purl.org/dc/dcmitype/StillImage" />
      </cc:Work>
    </rdf:RDF>
  </metadata>
  <defs
     id="defs20" />
  <sodipodi:namedview
     pagecolor="#ffffff"
     bordercolor="#666666"
     borderopacity="1"
     objecttolerance="10"
     gridtolerance="10"
     guidetolerance="10"
     inkscape:pageopacity="0"
     inkscape:pageshadow="2"
     inkscape:window-width="1598"
     inkscape:window-height="870"
     id="namedview18"
     showgrid="false"
     inkscape:zoom="4.72"
     inkscape:cx="-13.983051"
     inkscape:cy="25"
     inkscape:window-x="0"
     inkscape:window-y="1"
     inkscape:window-maximized="0"
     inkscape:current-layer="g12" />
  <g
     transform="matrix(1.6666253,0,0,1.666571,-1047.5911,-1300.3561)"
     id="g4">
    <g
       id="g6"
       style="fill:#ffffff">
      <path
         d="m 0.25344406,-0.0077164 c -0.62977566,0 -1.16642366,-0.39812066 -1.64137466,-1.2176439 -0.4912483,-0.8451333 -0.7403646,-1.6739693 -0.7403646,-2.462062 0,-0.4481767 0.1001121,-0.8090463 0.2968442,-1.0756242 0.1850912,-0.2491164 0.4423564,-0.3690183 0.7869286,-0.3690183 0.62861155,0 1.16409548,0.5145302 1.59248262,1.5296215 0.45632548,1.0802806 0.68681638,1.9347267 0.68681638,2.5412205 0,0.30732119 -0.087307,0.55643762 -0.2700702,0.76131843 -0.17461432,0.19673214 -0.40743342,0.29218797 -0.71126234,0.29218797"
         transform="matrix(1.25,0,0,-1.25,637.995,791.904)"
         id="path8"
         inkscape:connector-curvature="0" />
      <path
         d="m 11.467405,13.509622 -18.9999999,0 c -1.375,0 -2.5000001,-1.125 -2.5000001,-2.5 l 0,-19.0010004 c 0,-1.375 1.1250001,-2.4999996 2.5000001,-2.4999996 l 18.9999999,0 c 1.375,0 2.5,1.1249996 2.5,2.4999996 l 0,19.0010004 c 0,1.375 -1.125,2.5 -2.5,2.5"
         transform="matrix(1.25,0,0,-1.25,641.111,797.146)"
         id="path10"
         inkscape:connector-curvature="0" />
    </g>
    <g
       id="g12"
       style="fill:#92d13d">
      <path
         d="m 0.25344406,-0.0077164 c -0.62977566,0 -1.16642366,-0.39812066 -1.64137466,-1.2176439 -0.4912483,-0.8451333 -0.7403646,-1.6739693 -0.7403646,-2.462062 0,-0.4481767 0.1001121,-0.8090463 0.2968442,-1.0756242 0.1850912,-0.2491164 0.4423564,-0.3690183 0.7869286,-0.3690183 0.62861155,0 1.16409548,0.5145302 1.59248262,1.5296215 0.45632548,1.0802806 0.68681638,1.9347267 0.68681638,2.5412205 0,0.30732119 -0.087307,0.55643762 -0.2700702,0.76131843 -0.17461432,0.19673214 -0.40743342,0.29218797 -0.71126234,0.29218797"
         transform="matrix(1.25,0,0,-1.25,643.815,791.814)"
         id="path14"
         inkscape:connector-curvature="0"
         style="fill:#79b12a;fill-opacity:1" />
      <path
         d="m 0.66256694,-0.69598212 c 0.0954558,-0.12572232 0.25028053,-0.18625528 0.47378686,-0.18625528 0.5133661,0 1.0488499,0.35737731 1.5924825,1.06514737 0.5599301,0.72755968 0.8428053,1.71471263 0.8428053,2.93119243 0,1.8090044 -0.7531698,3.0708839 -2.3025809,3.8589766 -0.97900432,0.5028892 -2.09770009,0.755498 -3.3246567,0.755498 -2.2560171,0 -4.0929599,-0.6961292 -5.4561156,-2.07209 -1.2257926,-1.2397617 -1.8474195,-2.7472654 -1.8474195,-4.4794395 0,-1.92075754 0.7252313,-3.4631841 2.1559048,-4.584208 1.2770128,-0.9999581 2.8601826,-1.5051755 4.7064381,-1.5051755 1.2653718,0 2.46439013,0.2351473 3.5644604,0.7007855 0.5983451,0.2467882 1.2269566,0.6018374 1.8718655,1.0569987 L 3.383058,-2.8379178 4.3841802,-4.3745239 4.2142223,-4.5060667 C 3.2235769,-5.2743697 2.1363118,-5.8657302 0.98036501,-6.2661791 -0.17558181,-6.6689561 -1.3908976,-6.8726728 -2.6318233,-6.8726728 c -2.9055825,0 -5.1907018,0.9207995 -6.7948254,2.7356244 -1.3305613,1.5051755 -2.0045733,3.31417987 -2.0045733,5.3746289 0,2.3072373 0.842806,4.2896919 2.5028062,5.8938155 1.7391586,1.6891025 3.9928475,2.5458768 6.7005336,2.5458768 2.20596099,0 4.0626933,-0.5890323 5.5178127,-1.7496355 1.548247,-1.2362694 2.3340113,-2.8985978 2.3340113,-4.9392572 0,-1.6064518 -0.4970687,-3.00569455 -1.4772371,-4.1604773 -0.988317,-1.1652596 -2.1407716,-1.755456 -3.4212766,-1.755456 -0.69496501,0 -1.24208989,0.2048808 -1.6250773,0.6064938 -0.2607574,0.2747265 -0.4342076,0.5599299 -0.5168584,0.853282 -0.1653016,-0.2281628 -0.3399159,-0.4283872 -0.5226789,-0.5960169 -0.6239552,-0.5669145 -1.3829454,-0.8544461 -2.2571812,-0.8544461 -0.8951894,0 -1.6506874,0.3271108 -2.2467042,0.9720197 -0.5901965,0.6367603 -0.8905331,1.53078559 -0.8905331,2.65879412 0,1.28865368 0.4435203,2.51211808 1.3154279,3.63430608 0.8870408,1.1396495 1.9964238,1.7170409 3.2943903,1.7170409 0.7822721,0 1.4027349,-0.2246704 1.8439272,-0.6658626 0.14784014,-0.1513324 0.27705474,-0.414418 0.38531562,-0.5762273 l 0.25028053,0.8113746 2.43179545,0 L 0.78363287,0.8999928 C 0.70447438,0.62060988 0.64277732,0.42853412 0.59854169,0.24926342 c 0,0 -0.0931276,-0.39230019 -0.0931276,-0.50987383 0,-0.16180927 0.0523843,-0.29800845 0.15715289,-0.43537171 M 6.812,13.438 l -19,0 c -1.375,0 -2.5,-1.125 -2.5,-2.5 l 0,-19.001 c 0,-1.375 1.125,-2.5 2.5,-2.5 l 19,0 c 1.375,0 2.5,1.125 2.5,2.5 l 0,19.001 c 0,1.375 -1.125,2.5 -2.5,2.5"
         transform="matrix(1.25,0,0,-1.25,646.931,797.056)"
         id="path16"
         inkscape:connector-curvature="0"
         style="fill:#79b12a;fill-opacity:1" />
    </g>
  </g>
</svg>
