<svg xmlns="http://www.w3.org/2000/svg" width="30" height="30"><g transform="matrix(1.25 0 0 -1.25 -77.226 58.54)"><g fill="#fff"><path d="m 0.25344406,-0.0077164 c -0.62977566,0 -1.16642366,-0.39812066 -1.64137466,-1.2176439 -0.4912483,-0.8451333 -0.7403646,-1.6739693 -0.7403646,-2.462062 0,-0.4481767 0.1001121,-0.8090463 0.2968442,-1.0756242 0.1850912,-0.2491164 0.4423564,-0.3690183 0.7869286,-0.3690183 0.62861155,0 1.16409548,0.5145302 1.59248262,1.5296215 0.45632548,1.0802806 0.68681638,1.9347267 0.68681638,2.5412205 0,0.30732119 -0.087307,0.55643762 -0.2700702,0.76131843 -0.17461432,0.19673214 -0.40743342,0.29218797 -0.71126234,0.29218797" transform="translate(-57.831 6.727) translate(134.152 40.053)"/><path d="m 4.4670479,4.2465232 -18.9999999,0 c -1.375,0 -2.5,-1.125 -2.5,-2.5 l 0,-19.0010002 c 0,-1.375 1.125,-2.5 2.5,-2.5 l 18.9999999,0 c 1.375,0 2.5,1.125 2.5,2.5 l 0,19.0010002 c 0,1.375 -1.125,2.5 -2.5,2.5" transform="translate(-57.831 6.727) translate(136.645 35.859)"/></g><path d="M 6.125,3 C 4.40625,3 3,4.40625 3,6.125 l 0,23.75 C 3,31.59375 4.40625,33 6.125,33 c 4.010417,0 8.020833,0 12.03125,0 l 0,-11.53125 -3.875,0 0,-4.46875 3.875,0 0,-3.3125 c 0,-3.8362838 2.327687,-5.90625 5.75,-5.90625 1.6393,0 3.058225,0.1020125 3.46875,0.15625 l 0,4 L 25,11.96875 c -1.861038,0 -2.21875,0.858435 -2.21875,2.15625 l 0,2.875 4.4375,0 -0.59375,4.46875 -3.84375,0 0,11.53125 7.09375,0 C 31.59375,33 33,31.59375 33,29.875 L 33,6.125 C 33,4.40625 31.59375,3 29.875,3 z" transform="matrix(.8 0 0 -.8 59.381 49.231)" fill="#3c5a99"/></g></svg>