<?xml version="1.0" encoding="UTF-8" standalone="no"?>
<svg
   xmlns:dc="http://purl.org/dc/elements/1.1/"
   xmlns:cc="http://creativecommons.org/ns#"
   xmlns:rdf="http://www.w3.org/1999/02/22-rdf-syntax-ns#"
   xmlns:svg="http://www.w3.org/2000/svg"
   xmlns="http://www.w3.org/2000/svg"
   xmlns:sodipodi="http://sodipodi.sourceforge.net/DTD/sodipodi-0.dtd"
   xmlns:inkscape="http://www.inkscape.org/namespaces/inkscape"
   width="50"
   height="50"
   id="svg2999"
   version="1.1"
   inkscape:version="0.48.3.1 r9886"
   sodipodi:docname="facebook.svg">
  <metadata
     id="metadata3015">
    <rdf:RDF>
      <cc:Work
         rdf:about="">
        <dc:format>image/svg+xml</dc:format>
        <dc:type
           rdf:resource="http://purl.org/dc/dcmitype/StillImage" />
      </cc:Work>
    </rdf:RDF>
  </metadata>
  <defs
     id="defs3013" />
  <sodipodi:namedview
     pagecolor="#ffffff"
     bordercolor="#666666"
     borderopacity="1"
     objecttolerance="10"
     gridtolerance="10"
     guidetolerance="10"
     inkscape:pageopacity="0"
     inkscape:pageshadow="2"
     inkscape:window-width="1598"
     inkscape:window-height="870"
     id="namedview3011"
     showgrid="false"
     inkscape:zoom="4.72"
     inkscape:cx="25"
     inkscape:cy="22.563559"
     inkscape:window-x="0"
     inkscape:window-y="1"
     inkscape:window-maximized="0"
     inkscape:current-layer="g3001" />
  <g
     transform="matrix(2.0833292,0,0,-2.0832011,-128.71016,97.561565)"
     id="g3001">
    <g
       id="g3003"
       style="fill:#ffffff"
       transform="matrix(1.000002,0,0,1.0000218,-1.2283126e-4,-0.00102009)">
      <path
         d="m 0.25344406,-0.0077164 c -0.62977566,0 -1.16642366,-0.39812066 -1.64137466,-1.2176439 -0.4912483,-0.8451333 -0.7403646,-1.6739693 -0.7403646,-2.462062 0,-0.4481767 0.1001121,-0.8090463 0.2968442,-1.0756242 0.1850912,-0.2491164 0.4423564,-0.3690183 0.7869286,-0.3690183 0.62861155,0 1.16409548,0.5145302 1.59248262,1.5296215 0.45632548,1.0802806 0.68681638,1.9347267 0.68681638,2.5412205 0,0.30732119 -0.087307,0.55643762 -0.2700702,0.76131843 -0.17461432,0.19673214 -0.40743342,0.29218797 -0.71126234,0.29218797"
         transform="translate(76.321,46.78)"
         id="path3005"
         inkscape:connector-curvature="0" />
      <path
         d="m 4.4670479,4.2465232 -18.9999999,0 c -1.375,0 -2.5,-1.125 -2.5,-2.5 l 0,-19.0010002 c 0,-1.375 1.125,-2.5 2.5,-2.5 l 18.9999999,0 c 1.375,0 2.5,1.125 2.5,2.5 l 0,19.0010002 c 0,1.375 -1.125,2.5 -2.5,2.5"
         transform="translate(78.814,42.586)"
         id="path3007"
         inkscape:connector-curvature="0" />
    </g>
    <path
       d="m 64.281,46.832523 c -1.375,0 -2.5,-1.125071 -2.5,-2.500158 l 0,-19.001206 c 0,-1.375088 1.125,-2.500159 2.5,-2.500159 3.208334,0 6.416666,0 9.625,0 l 0,9.225586 -3.1,0 0,3.575226 3.1,0 0,2.650169 c 0,3.069222 1.86215,4.7253 4.6,4.7253 1.31144,0 2.44658,-0.08162 2.775,-0.125008 l 0,-3.200203 -1.9,-0.025 c -1.48883,0 -1.775,-0.686792 -1.775,-1.72511 l 0,-2.300146 3.55,0 -0.475,-3.575226 -3.075,0 0,-9.225586 5.675,0 c 1.375,0 2.5,1.125071 2.5,2.500159 l 0,19.001206 c 0,1.375087 -1.125,2.500158 -2.5,2.500158 z"
       id="path3009"
       inkscape:connector-curvature="0"
       style="fill:#2e4474;fill-opacity:1" />
  </g>
</svg>
