<?xml version="1.0" encoding="UTF-8" standalone="no"?>
<svg
   xmlns:dc="http://purl.org/dc/elements/1.1/"
   xmlns:cc="http://creativecommons.org/ns#"
   xmlns:rdf="http://www.w3.org/1999/02/22-rdf-syntax-ns#"
   xmlns:svg="http://www.w3.org/2000/svg"
   xmlns="http://www.w3.org/2000/svg"
   xmlns:sodipodi="http://sodipodi.sourceforge.net/DTD/sodipodi-0.dtd"
   xmlns:inkscape="http://www.inkscape.org/namespaces/inkscape"
   width="50"
   height="50"
   id="svg3017"
   version="1.1"
   inkscape:version="0.48.3.1 r9886"
   sodipodi:docname="google.svg">
  <metadata
     id="metadata3041">
    <rdf:RDF>
      <cc:Work
         rdf:about="">
        <dc:format>image/svg+xml</dc:format>
        <dc:type
           rdf:resource="http://purl.org/dc/dcmitype/StillImage" />
      </cc:Work>
    </rdf:RDF>
  </metadata>
  <defs
     id="defs3039" />
  <sodipodi:namedview
     pagecolor="#ffffff"
     bordercolor="#666666"
     borderopacity="1"
     objecttolerance="10"
     gridtolerance="10"
     guidetolerance="10"
     inkscape:pageopacity="0"
     inkscape:pageshadow="2"
     inkscape:window-width="1598"
     inkscape:window-height="870"
     id="namedview3037"
     showgrid="false"
     inkscape:zoom="9.9560635"
     inkscape:cx="10.088071"
     inkscape:cy="21.9362"
     inkscape:window-x="0"
     inkscape:window-y="1"
     inkscape:window-maximized="0"
     inkscape:current-layer="g3019" />
  <g
     transform="matrix(1.6666253,0,0,1.6665972,-989.25922,-1300.3774)"
     id="g3019">
    <g
       id="g3021"
       style="fill:#ffffff"
       transform="matrix(1.0000248,0,0,1,-0.01450713,-2.3065001e-5)">
      <path
         d="m 0.25344406,-0.0077164 c -0.62977566,0 -1.16642366,-0.39812066 -1.64137466,-1.2176439 -0.4912483,-0.8451333 -0.7403646,-1.6739693 -0.7403646,-2.462062 0,-0.4481767 0.1001121,-0.8090463 0.2968442,-1.0756242 0.1850912,-0.2491164 0.4423564,-0.3690183 0.7869286,-0.3690183 0.62861155,0 1.16409548,0.5145302 1.59248262,1.5296215 0.45632548,1.0802806 0.68681638,1.9347267 0.68681638,2.5412205 0,0.30732119 -0.087307,0.55643762 -0.2700702,0.76131843 -0.17461432,0.19673214 -0.40743342,0.29218797 -0.71126234,0.29218797"
         transform="matrix(1.25,0,0,-1.25,602.995,791.904)"
         id="path3023"
         inkscape:connector-curvature="0" />
      <path
         d="m 11.467405,13.509622 -18.9999999,0 c -1.375,0 -2.5000001,-1.125 -2.5000001,-2.5 l 0,-19.0010004 c 0,-1.375 1.1250001,-2.4999996 2.5000001,-2.4999996 l 18.9999999,0 c 1.375,0 2.5,1.1249996 2.5,2.4999996 l 0,19.0010004 c 0,1.375 -1.125,2.5 -2.5,2.5"
         id="path3025"
         inkscape:connector-curvature="0"
         transform="matrix(1.25,0,0,-1.25,606.111,797.146)" />
    </g>
    <g
       id="g3027"
       style="fill:#dc4a38"
       transform="matrix(1.0000248,0,0,1.0000417,-0.01546838,-0.0335614)">
      <path
         d="m 0,0 c -0.157,0.12 -0.424,0.256 -0.424,0.571 l 0,1.064 c -1.375,-0.02 -4.435,0.202 -5,3.506 l 0,-7.374 c 1.723,1.48 4.686,1.642 5.899,1.647 C 0.401,-0.239 0.162,-0.125 0,0"
         transform="matrix(1.25,0,0,-1.25,600.351,800.872)"
         id="path3029"
         inkscape:connector-curvature="0"
         style="fill:#bf3322;fill-opacity:1" />
      <path
         d="m 0,0 c 0.159,0 0.315,0.021 0.467,0.062 1.336,0.364 2,2.217 1.48,4.131 -0.454,1.665 -1.673,2.873 -2.9,2.873 -0.159,0 -0.317,-0.02 -0.468,-0.062 C -2.056,6.832 -2.562,6.316 -2.845,5.552 -3.136,4.765 -3.156,3.813 -2.901,2.875 -2.448,1.209 -1.228,0 0,0"
         transform="matrix(1.25,0,0,-1.25,601.056,796.886)"
         id="path3031"
         inkscape:connector-curvature="0"
         style="fill:#bf3322;fill-opacity:1" />
      <path
         d="m 0,-0.321875 -3.675,0 0,-3.678125 -1.65,0 0,3.678125 -3.675,0 0,1.64375 3.675,0 0,3.678125 1.65,0 0,-3.678125 3.675,0 z M -1.5,10 l -19,0 C -21.875,10 -23,8.875 -23,7.5 l 0,-6.764 C -22.25,4.899 -16.969,5 -16.912,5 L -11,5 -11,4.998 c 0,-0.692 -0.927,-0.82 -1.74,-0.924 -0.207,-0.026 -0.441,-0.06 -0.63,-0.104 1.398,-0.782 1.534,-2.086 1.534,-3.81 0,-2.041 -1.172,-3.021 -2.036,-3.737 -0.54,-0.447 -0.96,-0.8 -0.96,-1.247 0,-0.437 0.59,-0.914 1.269,-1.467 1.153,-0.938 2.733,-2.221 2.733,-4.394 0,-1.358 -0.407,-2.457 -1.187,-3.315 l 10.517,0 c 1.375,0 2.5,1.125 2.5,2.5 l 0,19 C 1,8.875 -0.125,10 -1.5,10"
         transform="matrix(1.25,0,0,-1.25,622.321,792.76)"
         id="path3033"
         inkscape:connector-curvature="0"
         style="fill:#bf3322;fill-opacity:1" />
      <path
         d="m 0,0 c -0.132,0 -0.266,-0.005 -0.4,-0.014 -1.132,-0.076 -2.172,-0.467 -2.929,-1.102 -0.738,-0.619 -1.115,-1.396 -1.061,-2.187 0.068,-1.012 0.865,-1.871 2.01,-2.343 l 4.065,0 c 1.437,0.568 2.396,1.688 2.313,2.912 C 3.894,-1.201 2.138,0 0,0"
         transform="matrix(1.25,0,0,-1.25,600.928,803.202)"
         id="path3035"
         inkscape:connector-curvature="0"
         style="fill:#bf3322;fill-opacity:1" />
    </g>
  </g>
</svg>
